#!OML:ASF E:\Style4\Style4.ASF
:FULLY-SPECIFIED
:DEGREES
2446
root -0.518427 17.4513 -2.29587 11.9081 -3.03022 -5.7828
lowerback 18.9328 0.960398 -9.05167
upperback 12.6925 -0.0821713 -1.62103
thorax 3.26931 -0.562015 3.36704
lowerneck 2.43376 -15.3017 -10.527
upperneck 30.672 -18.6112 -5.95871
head 9.92393 -10.1568 -1.85282
rclavicle -3.33958e-014 -1.59028e-014
rhumerus 73.1612 11.5348 -1492.82
rradius 5.08753
rwrist 1480.93
rhand -28.0882 17.1055
rfingers 7.12502
rthumb -1.47113 -12.8692
lclavicle -3.33958e-014 -1.59028e-014
lhumerus 57.1361 18.1795 30.8786
lradius 123.512
lwrist 46.0185
lhand -11.7011 27.8869
lfingers 7.12502
lthumb 14.3451 57.3713
rfemur -35.224 -4.11913 29.3787
rtibia 37.1252
rfoot -13.7542 -12.8105
rtoes -4.2972
lfemur -40.1167 5.84469 -10.7779
ltibia 47.1428
lfoot -17.1072 11.475
ltoes -14.1262
2447
root -0.537489 17.4449 -2.28913 11.8322 -2.26963 -5.57117
lowerback 18.9704 0.9186 -9.28428
upperback 12.7067 -0.163704 -1.56676
thorax 3.28742 -0.61727 3.56778
lowerneck 2.353 -15.1135 -10.2663
upperneck 30.378 -18.1675 -6.69576
head 9.70869 -9.98561 -2.05975
rclavicle 3.18055e-014 -1.90833e-014
rhumerus 72.1106 10.7721 -1497.06
rradius 6.62506
rwrist 1486.83
rhand -25.5215 16.1844
rfingers 7.12502
rthumb 1.00785 -13.7929
lclavicle 3.18055e-014 -1.90833e-014
lhumerus 56.5308 18.4654 30.7744
lradius 123.473
lwrist 45.8165
lhand -11.2922 27.5595
lfingers 7.12502
lthumb 14.7389 57.0155
rfemur -35.3153 -4.51848 29.2509
rtibia 37.4436
rfoot -13.9728 -13.2006
rtoes -5.0216
lfemur -40.1905 5.56764 -10.9727
ltibia 47.0047
lfoot -17.0996 11.1457
ltoes -13.8958
2448
root -0.55597 17.4364 -2.28208 11.8025 -1.47554 -5.44183
lowerback 19.0143 0.855977 -9.4308
upperback 12.6884 -0.26265 -1.46246
thorax 3.26583 -0.675517 3.7777
lowerneck 2.19727 -14.9111 -10.3903
upperneck 30.4373 -17.7443 -7.11238
head 9.72354 -9.83679 -2.15695
rclavicle -2.54444e-014 -1.74931e-014
rhumerus 71.0389 10.0409 -1501.28
rradius 7.96555
rwrist 1492.16
rhand -23.1246 15.9879
rfingers 7.12502
rthumb 3.32276 -13.966
lclavicle -2.54444e-014 -1.74931e-014
lhumerus 56.0127 18.7511 30.6781
lradius 123.392
lwrist 45.9748
lhand -11.193 27.1938
lfingers 7.12502
lthumb 14.8345 56.6428
rfemur -35.4353 -4.88807 29.2084
rtibia 37.7439
rfoot -14.1739 -13.6038
rtoes -5.02654
lfemur -40.3222 5.21606 -11.0546
ltibia 46.8889
lfoot -17.0613 10.8174
ltoes -13.3675
2449
root -0.574608 17.4301 -2.27931 11.8155 -0.621699 -5.42966
lowerback 19.014 0.781395 -9.42455
upperback 12.69 -0.34858 -1.32669
thorax 3.28187 -0.721376 3.9337
lowerneck 2.24206 -14.7205 -11.0333
upperneck 30.5938 -17.5122 -6.75252
head 9.88468 -9.75885 -1.95359
rclavicle 0 2.06736e-014
rhumerus 69.9399 9.14026 -1505.47
rradius 9.09969
rwrist 1497.21
rhand -21.2832 16.2134
rfingers 7.12502
rthumb 5.10087 -13.7052
lclavicle 0 2.06736e-014
lhumerus 55.5845 19.0218 30.6273
lradius 123.398
lwrist 46.145
lhand -11.0056 27.1687
lfingers 7.12502
lthumb 15.0151 56.6043
rfemur -35.5907 -5.29383 29.3126
rtibia 38.0028
rfoot -14.4292 -13.9362
rtoes -4.60381
lfemur -40.5438 4.8402 -10.9916
ltibia 46.7961
lfoot -16.9795 10.5253
ltoes -13.1554
2450
root -0.594781 17.4249 -2.27727 11.8009 0.241902 -5.35945
lowerback 18.9546 0.733068 -9.4753
upperback 12.7786 -0.396359 -1.18968
thorax 3.42423 -0.759989 4.11497
lowerneck 2.27709 -14.5527 -11.4407
upperneck 30.4943 -17.2959 -6.5448
head 9.90622 -9.67384 -1.80854
rclavicle -1.59028e-014 1.74931e-014
rhumerus 68.9609 7.89915 -1509.52
rradius 10.124
rwrist 1501.96
rhand -19.6635 16.9762
rfingers 7.12502
rthumb 6.66469 -12.8989
lclavicle -1.59028e-014 1.74931e-014
lhumerus 55.2999 19.2165 30.6292
lradius 123.4
lwrist 46.1616
lhand -10.8763 27.1769
lfingers 7.12502
lthumb 15.1397 56.6031
rfemur -35.7144 -5.70879 29.3577
rtibia 38.2454
rfoot -14.616 -14.3521
rtoes -4.5354
lfemur -40.7386 4.43289 -10.9663
ltibia 46.7059
lfoot -16.8789 10.1789
ltoes -13.1698
2451
root -0.615472 17.42 -2.27286 11.7483 1.10272 -5.29483
lowerback 18.9917 0.694377 -9.55321
upperback 12.8323 -0.448912 -1.05502
thorax 3.48062 -0.798058 4.31134
lowerneck 2.07674 -14.362 -11.0692
upperneck 30.2854 -16.8081 -7.4238
head 9.72434 -9.48298 -2.09052
rclavicle -1.90833e-014 -2.06736e-014
rhumerus 69.0686 9.71451 -1505.92
rradius 11.0738
rwrist 1498.63
rhand -17.9695 16.431
rfingers 7.12502
rthumb 8.29976 -13.386
lclavicle -1.90833e-014 -2.06736e-014
lhumerus 54.9296 19.3902 30.5977
lradius 123.405
lwrist 46.1507
lhand -10.7596 27.1719
lfingers 7.12502
lthumb 15.2521 56.5896
rfemur -35.7822 -6.12194 29.3927
rtibia 38.4879
rfoot -14.8137 -14.7415
rtoes -4.42876
lfemur -40.8731 3.94539 -10.8833
ltibia 46.6123
lfoot -16.7754 9.72842
ltoes -12.3618
2452
root -0.6387 17.4146 -2.26693 11.6481 1.89909 -5.22874
lowerback 19.1355 0.695867 -9.74289
upperback 12.8578 -0.480392 -0.909952
thorax 3.45453 -0.829152 4.58031
lowerneck 1.5966 -14.0674 -10.2993
upperneck 30.1538 -16.0002 -9.03154
head 9.51255 -9.17448 -2.65753
rclavicle -3.18055e-015 6.36111e-015
rhumerus 69.1828 11.4181 -1502.74
rradius 12.0508
rwrist 1495.79
rhand -16.4248 15.703
rfingers 7.12502
rthumb 9.79036 -14.0494
lclavicle -3.18055e-015 6.36111e-015
lhumerus 54.4633 19.5737 30.5379
lradius 123.443
lwrist 46.211
lhand -10.7472 27.2024
lfingers 7.12502
lthumb 15.264 56.6192
rfemur -35.791 -6.45594 29.424
rtibia 38.7721
rfoot -15.0188 -15.1707
rtoes -4.47801
lfemur -40.9127 3.6537 -10.8893
ltibia 46.5185
lfoot -16.5424 9.45397
ltoes -13.2973
2453
root -0.660041 17.4068 -2.25892 11.5933 2.67817 -5.10085
lowerback 19.1763 0.675383 -9.87479
upperback 12.929 -0.516866 -0.846375
thorax 3.52917 -0.861161 4.72798
lowerneck 1.93184 -13.94 -11.257
upperneck 30.0559 -16.0355 -7.99217
head 9.62231 -9.18271 -2.17621
rclavicle -3.65764e-014 -4.45278e-014
rhumerus 69.5583 12.9933 -1499.3
rradius 12.9055
rwrist 1492.58
rhand -15.101 14.976
rfingers 7.12502
rthumb 11.0673 -14.7122
lclavicle -3.65764e-014 -4.45278e-014
lhumerus 54.1161 19.8162 30.4167
lradius 123.469
lwrist 46.1718
lhand -10.6778 27.1014
lfingers 7.12502
lthumb 15.3309 56.5131
rfemur -35.8946 -6.84996 29.4076
rtibia 39.1137
rfoot -15.239 -15.5964
rtoes -4.83726
lfemur -40.9687 3.47703 -11.0641
ltibia 46.432
lfoot -16.1724 9.41591
ltoes -16.145
